<?xml version="1.0" encoding="UTF-8" standalone="no"?>
<!-- Created with Inkscape (http://www.inkscape.org/) -->
<svg
   xmlns:dc="http://purl.org/dc/elements/1.1/"
   xmlns:cc="http://creativecommons.org/ns#"
   xmlns:rdf="http://www.w3.org/1999/02/22-rdf-syntax-ns#"
   xmlns:svg="http://www.w3.org/2000/svg"
   xmlns="http://www.w3.org/2000/svg"
   xmlns:sodipodi="http://sodipodi.sourceforge.net/DTD/sodipodi-0.dtd"
   xmlns:inkscape="http://www.inkscape.org/namespaces/inkscape"
   width="744.09448819"
   height="1052.3622047"
   id="svg2"
   sodipodi:version="0.32"
   inkscape:version="0.46"
   sodipodi:docname="02vdplc.svg"
   inkscape:output_extension="org.inkscape.output.svg.inkscape"
   inkscape:export-filename="/home/thomas/school/mae281a/lectures/images/02vdplc.png"
   inkscape:export-xdpi="150"
   inkscape:export-ydpi="150">
  <defs
     id="defs4">
    <marker
       inkscape:stockid="Arrow1Lend"
       orient="auto"
       refY="0.0"
       refX="0.0"
       id="Arrow1Lend"
       style="overflow:visible;">
      <path
         id="path3161"
         d="M 0.0,0.0 L 5.0,-5.0 L -12.5,0.0 L 5.0,5.0 L 0.0,0.0 z "
         style="fill-rule:evenodd;stroke:#000000;stroke-width:1.0pt;marker-start:none;"
         transform="scale(0.8) rotate(180) translate(12.5,0)" />
    </marker>
    <marker
       inkscape:stockid="Arrow1Mend"
       orient="auto"
       refY="0.0"
       refX="0.0"
       id="Arrow1Mend"
       style="overflow:visible;">
      <path
         id="path3167"
         d="M 0.0,0.0 L 5.0,-5.0 L -12.5,0.0 L 5.0,5.0 L 0.0,0.0 z "
         style="fill-rule:evenodd;stroke:#000000;stroke-width:1.0pt;marker-start:none;"
         transform="scale(0.4) rotate(180) translate(10,0)" />
    </marker>
    <inkscape:perspective
       sodipodi:type="inkscape:persp3d"
       inkscape:vp_x="0 : 526.18109 : 1"
       inkscape:vp_y="0 : 1000 : 0"
       inkscape:vp_z="744.09448 : 526.18109 : 1"
       inkscape:persp3d-origin="372.04724 : 350.78739 : 1"
       id="perspective10" />
  </defs>
  <sodipodi:namedview
     id="base"
     pagecolor="#ffffff"
     bordercolor="#666666"
     borderopacity="1.0"
     gridtolerance="10000"
     guidetolerance="10"
     objecttolerance="10"
     inkscape:pageopacity="0.0"
     inkscape:pageshadow="2"
     inkscape:zoom="1.979899"
     inkscape:cx="321.76101"
     inkscape:cy="818.5535"
     inkscape:document-units="px"
     inkscape:current-layer="layer1"
     showgrid="false"
     inkscape:window-width="1920"
     inkscape:window-height="1150"
     inkscape:window-x="0"
     inkscape:window-y="25" />
  <metadata
     id="metadata7">
    <rdf:RDF>
      <cc:Work
         rdf:about="">
        <dc:format>image/svg+xml</dc:format>
        <dc:type
           rdf:resource="http://purl.org/dc/dcmitype/StillImage" />
      </cc:Work>
    </rdf:RDF>
  </metadata>
  <g
     inkscape:label="Layer 1"
     inkscape:groupmode="layer"
     id="layer1">
    <path
       transform="matrix(0.5625,0,0,0.5625,228.26291,57.925803)"
       d="M 83.842658,325.55743 A 4.0406103,4.0406103 0 1 1 75.761437,325.55743 A 4.0406103,4.0406103 0 1 1 83.842658,325.55743 z"
       sodipodi:ry="4.0406103"
       sodipodi:rx="4.0406103"
       sodipodi:cy="325.55743"
       sodipodi:cx="79.802048"
       id="path7077"
       style="opacity:1;fill:#000000;fill-opacity:1;stroke:#000000;stroke-width:0.8888889;stroke-miterlimit:4;stroke-dasharray:none;stroke-dashoffset:0;stroke-opacity:1"
       sodipodi:type="arc" />
    <g
       id="g3937">
      <path
         id="path3153"
         d="M 273.24626,455.36203 L 273.24626,27.562425"
         style="fill:none;fill-rule:evenodd;stroke:#000000;stroke-width:1px;stroke-linecap:butt;stroke-linejoin:miter;stroke-opacity:1;marker-end:url(#Arrow1Mend)" />
      <path
         style="fill:none;fill-rule:evenodd;stroke:#000000;stroke-width:1px;stroke-linecap:butt;stroke-linejoin:miter;marker-end:url(#Arrow1Mend);stroke-opacity:1"
         d="M 58.971458,241.08723 L 486.77106,241.08723"
         id="path3933" />
    </g>
    <path
       style="fill:none;fill-rule:evenodd;stroke:#000000;stroke-width:1px;stroke-linecap:butt;stroke-linejoin:miter;stroke-opacity:1"
       d="M 134.09775,196.06453 C 124.15263,175.88414 304.4166,112.49586 319.62909,106.01909 C 340.18948,97.05788 406.82057,272.19681 412.39476,286.10995 C 420.56622,305.51069 251.39329,367.17242 226.86342,376.15537 C 206.87926,383.74513 141.60235,214.82363 134.09775,196.06453 z"
       id="path3949"
       sodipodi:nodetypes="ccccc" />
    <path
       style="fill:none;fill-rule:evenodd;stroke:#000000;stroke-width:1px;stroke-linecap:butt;stroke-linejoin:miter;stroke-opacity:1;marker-end:url(#Arrow1Lend)"
       d="M 229.8097,140.82578 L 249.25514,132.9971"
       id="path3951" />
    <path
       style="fill:none;fill-rule:evenodd;stroke:#000000;stroke-width:1px;stroke-linecap:butt;stroke-linejoin:miter;marker-end:url(#Arrow1Lend);stroke-opacity:1"
       d="M 364.28626,320.50666 L 336.25453,333.25984"
       id="path4468" />
    <path
       sodipodi:type="arc"
       style="opacity:1;fill:#000000;fill-opacity:1;stroke:#000000;stroke-width:0.8888889;stroke-miterlimit:4;stroke-dasharray:none;stroke-dashoffset:0;stroke-opacity:1"
       id="path6029"
       sodipodi:cx="79.802048"
       sodipodi:cy="325.55743"
       sodipodi:rx="4.0406103"
       sodipodi:ry="4.0406103"
       d="M 83.842658,325.55743 A 4.0406103,4.0406103 0 1 1 75.761437,325.55743 A 4.0406103,4.0406103 0 1 1 83.842658,325.55743 z"
       transform="matrix(0.5625,0,0,0.5625,33.145628,140.66361)" />
    <path
       style="fill:none;fill-rule:evenodd;stroke:#ff0000;stroke-width:1;stroke-linecap:butt;stroke-linejoin:miter;stroke-opacity:1;marker-end:url(#Arrow1Lend);stroke-miterlimit:4;stroke-dasharray:1,1;stroke-dashoffset:0"
       d="M 77.781746,323.53712 C 77.781746,323.53712 82.855964,145.87569 137.88582,106.8594 C 184.42894,73.860228 282.29919,57.176032 333.35034,86.656349 C 387.68156,118.0308 432.08551,203.76838 419.97092,265.32708 C 418.90798,270.72829 413.17033,286.77859 413.17033,286.77859"
       id="path6031"
       sodipodi:nodetypes="cssss" />
    <path
       style="fill:none;fill-rule:evenodd;stroke:#0000ff;stroke-width:1;stroke-linecap:butt;stroke-linejoin:miter;stroke-opacity:1;stroke-miterlimit:4;stroke-dasharray:3, 3;stroke-dashoffset:0;marker-end:url(#Arrow1Lend)"
       d="M 272.74119,241.20969 C 272.74119,241.20969 286.31708,224.11403 294.4087,224.28219 C 307.10589,224.54607 315.5574,241.71913 314.15744,254.34167 C 311.79105,275.67795 287.12571,283.8341 265.67012,283.13102 C 246.50154,282.50288 226.70782,252.25292 225.26402,233.12847 C 222.56946,197.43663 258.16346,183.04273 293.95439,182.62084 C 336.8645,182.11503 352.37698,236.61063 343.45187,278.58533 C 333.50975,325.34302 278.2616,318.7395 232.84016,303.83915 C 185.62856,288.35154 186.83349,237.93834 195.06187,188.93737 C 198.62867,167.69665 215.92011,147.6443 215.92011,147.6443"
       id="path6554"
       sodipodi:nodetypes="csssssssss" />
  </g>
</svg>
