<?xml version="1.0" encoding="UTF-8" standalone="no"?>
<!-- Created with Inkscape (http://www.inkscape.org/) -->

<svg
   xmlns:dc="http://purl.org/dc/elements/1.1/"
   xmlns:cc="http://creativecommons.org/ns#"
   xmlns:rdf="http://www.w3.org/1999/02/22-rdf-syntax-ns#"
   xmlns:svg="http://www.w3.org/2000/svg"
   xmlns="http://www.w3.org/2000/svg"
   xmlns:sodipodi="http://sodipodi.sourceforge.net/DTD/sodipodi-0.dtd"
   xmlns:inkscape="http://www.inkscape.org/namespaces/inkscape"
   width="744.09448819"
   height="1052.3622047"
   id="svg4265"
   version="1.1"
   inkscape:version="0.47 r22583"
   sodipodi:docname="07attractiveNotStable.svg"
   inkscape:export-filename="/home/thomas/school/mae281a/lectures/images/07attractiveNotStable.png"
   inkscape:export-xdpi="100"
   inkscape:export-ydpi="100">
  <defs
     id="defs4267">
    <inkscape:perspective
       sodipodi:type="inkscape:persp3d"
       inkscape:vp_x="0 : 526.18109 : 1"
       inkscape:vp_y="0 : 1000 : 0"
       inkscape:vp_z="744.09448 : 526.18109 : 1"
       inkscape:persp3d-origin="372.04724 : 350.78739 : 1"
       id="perspective4273" />
    <inkscape:perspective
       id="perspective4283"
       inkscape:persp3d-origin="0.5 : 0.33333333 : 1"
       inkscape:vp_z="1 : 0.5 : 1"
       inkscape:vp_y="0 : 1000 : 0"
       inkscape:vp_x="0 : 0.5 : 1"
       sodipodi:type="inkscape:persp3d" />
    <marker
       inkscape:stockid="Arrow1Mend"
       orient="auto"
       refY="0"
       refX="0"
       id="Arrow1Mend"
       style="overflow:visible">
      <path
         id="path3612"
         d="M 0,0 5,-5 -12.5,0 5,5 0,0 z"
         style="fill-rule:evenodd;stroke:#000000;stroke-width:1pt;marker-start:none"
         transform="matrix(-0.4,0,0,-0.4,-4,0)" />
    </marker>
    <marker
       inkscape:stockid="Arrow1Mend"
       orient="auto"
       refY="0"
       refX="0"
       id="marker4289"
       style="overflow:visible">
      <path
         id="path4291"
         d="M 0,0 5,-5 -12.5,0 5,5 0,0 z"
         style="fill-rule:evenodd;stroke:#000000;stroke-width:1pt;marker-start:none"
         transform="matrix(-0.4,0,0,-0.4,-4,0)" />
    </marker>
    <marker
       inkscape:stockid="Arrow1Mend"
       orient="auto"
       refY="0"
       refX="0"
       id="marker4293"
       style="overflow:visible">
      <path
         id="path4295"
         d="M 0,0 5,-5 -12.5,0 5,5 0,0 z"
         style="fill-rule:evenodd;stroke:#000000;stroke-width:1pt;marker-start:none"
         transform="matrix(-0.4,0,0,-0.4,-4,0)" />
    </marker>
  </defs>
  <sodipodi:namedview
     id="base"
     pagecolor="#ffffff"
     bordercolor="#666666"
     borderopacity="1.0"
     inkscape:pageopacity="0.0"
     inkscape:pageshadow="2"
     inkscape:zoom="1.979899"
     inkscape:cx="315.07213"
     inkscape:cy="709.46354"
     inkscape:document-units="px"
     inkscape:current-layer="layer1"
     showgrid="false"
     inkscape:window-width="1920"
     inkscape:window-height="1149"
     inkscape:window-x="0"
     inkscape:window-y="24"
     inkscape:window-maximized="1" />
  <metadata
     id="metadata4270">
    <rdf:RDF>
      <cc:Work
         rdf:about="">
        <dc:format>image/svg+xml</dc:format>
        <dc:type
           rdf:resource="http://purl.org/dc/dcmitype/StillImage" />
        <dc:title></dc:title>
      </cc:Work>
    </rdf:RDF>
  </metadata>
  <g
     inkscape:label="Layer 1"
     inkscape:groupmode="layer"
     id="layer1">
    <path
       sodipodi:type="arc"
       style="fill:#ffffff;fill-opacity:1;stroke:none"
       id="path2816"
       sodipodi:cx="325.7742"
       sodipodi:cy="243.73508"
       sodipodi:rx="70.710678"
       sodipodi:ry="70.710678"
       d="m 396.48488,243.73508 a 70.710678,70.710678 0 1 1 -141.42136,0 70.710678,70.710678 0 1 1 141.42136,0 z"
       transform="matrix(1.9751956,0,0,1.9751956,-220.25347,-162.27657)" />
    <path
       sodipodi:type="arc"
       style="fill:#ffffff;fill-opacity:1;stroke:#000000;stroke-width:0.50627899;stroke-miterlimit:4;stroke-opacity:1;stroke-dasharray:none;stroke-dashoffset:0"
       id="path2818"
       sodipodi:cx="342.18918"
       sodipodi:cy="250.5536"
       sodipodi:rx="99.24749"
       sodipodi:ry="99.24749"
       d="m 441.43667,250.5536 a 99.24749,99.24749 0 1 1 -198.49498,0 99.24749,99.24749 0 1 1 198.49498,0 z"
       transform="matrix(1.9751956,0,0,1.9751956,-252.67627,-175.74448)" />
    <path
       d="m 441.43667,250.5536 a 99.24749,99.24749 0 1 1 -198.49498,0 99.24749,99.24749 0 1 1 198.49498,0 z"
       sodipodi:ry="99.24749"
       sodipodi:rx="99.24749"
       sodipodi:cy="250.5536"
       sodipodi:cx="342.18918"
       id="path3592"
       style="fill:#ffffff;fill-opacity:1;stroke:#000000;stroke-width:1.60457778;stroke-miterlimit:4;stroke-opacity:1;stroke-dasharray:none;stroke-dashoffset:0"
       sodipodi:type="arc"
       transform="matrix(0.62321697,0,0,0.62321697,209.9562,162.99863)" />
    <path
       style="fill:none;stroke:#000000;stroke-width:1px;stroke-linecap:butt;stroke-linejoin:miter;stroke-opacity:1;marker-end:url(#Arrow1Mend)"
       d="m 423.33548,318.98127 48.77205,-32.43828"
       id="path3598" />
    <path
       id="path4048"
       d="M 423.33546,318.98133 506.44004,146.61905"
       style="fill:none;stroke:#000000;stroke-width:1px;stroke-linecap:butt;stroke-linejoin:miter;stroke-opacity:1;marker-end:url(#Arrow1Mend)" />
    <text
       xml:space="preserve"
       style="font-size:47.4046936px;font-style:italic;font-variant:normal;font-weight:normal;font-stretch:normal;text-align:start;line-height:125%;writing-mode:lr-tb;text-anchor:start;fill:#000000;fill-opacity:1;stroke:none;font-family:FreeSerif;-inkscape-font-specification:FreeSerif Italic"
       x="470.27271"
       y="179.99893"
       id="text4236"
       sodipodi:linespacing="125%"><tspan
         sodipodi:role="line"
         id="tspan4238"
         x="470.27271"
         y="179.99893">ε</tspan></text>
    <text
       xml:space="preserve"
       style="font-size:47.4046936px;font-style:italic;font-variant:normal;font-weight:normal;font-stretch:normal;text-align:start;line-height:125%;writing-mode:lr-tb;text-anchor:start;fill:#000000;fill-opacity:1;stroke:none;font-family:FreeSerif;-inkscape-font-specification:FreeSerif Italic"
       x="438.5639"
       y="335.52325"
       id="text4240"
       sodipodi:linespacing="125%"><tspan
         sodipodi:role="line"
         id="tspan4242"
         x="438.5639"
         y="335.52325">δ</tspan></text>
    <path
       style="fill:none;stroke:#0000ff;stroke-width:1px;stroke-linecap:butt;stroke-linejoin:miter;stroke-opacity:1;marker-end:url(#marker4293)"
       d="m 387.85714,277.00504 c 0,0 12.33357,-22.30268 13.57143,-34.64286 1.65265,-16.47521 7.2223,-43.95647 -8.57143,-48.92857 -23.00656,-11.01263 -56.34147,-21.23009 -76.78571,-0.35714 0,0 -17.80121,23.66223 -23.57143,37.14285 -29.64527,69.01798 -25.78931,112.38345 29.64286,163.21429 0,0 13.89816,24.06909 15.71428,37.5 1.62449,12.01367 -9.81982,25.1094 -4.64285,36.07143 6.12168,12.9624 22.34243,20.19641 36.42857,22.85714 35.92929,2.37945 67.21361,-7.78447 57.14285,-48.92857 l -18.21428,-33.21429 c -7.70643,-14.05292 -34.34878,-10.45079 -41.07143,-25 -12.17706,-35.21126 5.1423,-38.04949 32.5,-52.14285 l 23.57143,-12.14286"
       id="path4346"
       sodipodi:nodetypes="csccccssccscss" />
  </g>
</svg>
