<?xml version="1.0" standalone="no"?>
<!DOCTYPE svg PUBLIC "-//W3C//DTD SVG 1.1//EN"
  "http://www.w3.org/Graphics/SVG/1.1/DTD/svg11.dtd">
<!-- Created with matplotlib (http://matplotlib.sourceforge.net/) -->
<svg width="576pt" height="432pt" viewBox="0 0 576 432"
   xmlns="http://www.w3.org/2000/svg"
   xmlns:xlink="http://www.w3.org/1999/xlink"
   version="1.1"
   id="svg1">
<g id="figure1">
<g id="patch1">
<path style="fill: #ffffff; stroke: #ffffff; stroke-width: 1.000000; stroke-linejoin: round; stroke-linecap: square;  opacity: 1.000000"  d="M0.000000 432.000000L576.000000 432.000000L576.000000 0.000000
L0.000000 0.000000L0.000000 432.000000"/>
</g>
<g id="axes1">
<g id="patch2">
<path style="fill: #ffffff; opacity: 1.000000"  d="M72.000000 388.800000L518.400000 388.800000L518.400000 43.200000
L72.000000 43.200000L72.000000 388.800000"/>
</g>
<g id="line2d1">
<defs>
  <clipPath id="p50431ccdcb28178602d99d9270004dde">
<rect x="72.000000" y="43.200000" width="446.400000" height="345.600000"/>
  </clipPath>
</defs><path style="fill: none; stroke: #0000ff; stroke-width: 1.000000; stroke-linejoin: round; stroke-linecap: square;  opacity: 1.000000" clip-path="url(#p50431ccdcb28178602d99d9270004dde)" d="M109.200000 226.552233L126.274800 209.655497L137.323200 199.206084
L145.358400 192.482171L152.389200 187.485834L158.415600 184.005735
L164.442000 181.363460L169.464000 179.852190L174.486000 178.998714
L179.508000 178.818563L184.530000 179.315015L189.552000 180.479036
L194.574000 182.289444L200.600400 185.267985L206.626800 189.051294
L213.657600 194.349065L221.692800 201.335539L232.741200 211.982673
L252.829200 231.568309L260.864400 238.447619L267.895200 243.621036
L273.921600 247.278505L279.948000 250.116895L284.970000 251.802217
L289.992000 252.836035L295.014000 253.199535L300.036000 252.886102
L305.058000 251.901441L310.080000 250.263469L315.102000 248.001993
L321.128400 244.523896L327.154800 240.298853L334.185600 234.574142
L343.225200 226.273148L362.308800 207.403242L372.352800 198.060874
L380.388000 191.493169L387.418800 186.671521L393.445200 183.364504
L398.467200 181.258472L403.489200 179.784643L408.511200 178.969837
L413.533200 178.828881L418.555200 179.364341L423.577200 180.566472
L428.599200 182.413399L434.625600 185.432729L440.652000 189.252513
L447.682800 194.586120L455.718000 201.603150L466.766400 212.271799
L480.828000 226.194992L480.828000 226.194992"/>
</g>
<g id="line2d2">
<path style="fill: none; stroke: #000000; stroke-width: 0.500000; stroke-linejoin: round; stroke-linecap: square;  opacity: 1.000000" clip-path="url(#p50431ccdcb28178602d99d9270004dde)" d="M109.200000 253.200000L480.828000 253.200000L480.828000 253.200000"/>
</g>
<g id="line2d3">
<path style="fill: none; stroke: #000000; stroke-width: 0.500000; stroke-linejoin: round; stroke-linecap: square;  opacity: 1.000000" clip-path="url(#p50431ccdcb28178602d99d9270004dde)" d="M109.200000 216.000000L480.828000 216.000000L480.828000 216.000000"/>
</g>
<g id="matplotlib.axis1">
<g id="xtick1">
<g id="line2d4">
<defs><path id="m30e32995789d870ad79a2e54c91cf9c6" d="M0.000000 0.000000L0.000000 -4.000000"/></defs>
<g ><use style="fill: none; stroke: #000000; stroke-width: 0.500000; stroke-linejoin: round; stroke-linecap: butt;  opacity: 1.000000" xlink:href="#m30e32995789d870ad79a2e54c91cf9c6" x="72.000000" y="388.800000"/>
</g></g>
<g id="line2d5">
<defs><path id="m9281cae24120827b11d5ea8a7ad3e96b" d="M0.000000 0.000000L0.000000 4.000000"/></defs>
<g ><use style="fill: none; stroke: #000000; stroke-width: 0.500000; stroke-linejoin: round; stroke-linecap: butt;  opacity: 1.000000" xlink:href="#m9281cae24120827b11d5ea8a7ad3e96b" x="72.000000" y="43.200000"/>
</g></g>
<g id="text1">
<defs>
<path id="c_6a8d56c819c37117ab4cf023bec22a5a" d="M10.593750 -35.500000l62.593750 0.000000l0.000000 8.296875l-62.593750 0.000000z"/>
<path id="c_cc8d6d580d1b10c8632f7a42cd53db8a" d="M33.015625 -40.375000q-6.640625 0.000000 -10.531250 4.546875q-3.875000 4.531250 -3.875000 12.437500q0.000000 7.859375 3.875000 12.437500q3.890625 4.562500 10.531250 4.562500q6.640625 0.000000 10.515625 -4.562500q3.875000 -4.578125 3.875000 -12.437500q0.000000 -7.906250 -3.875000 -12.437500q-3.875000 -4.546875 -10.515625 -4.546875M52.593750 -71.296875l0.000000 8.984375q-3.718750 -1.750000 -7.500000 -2.671875q-3.781250 -0.937500 -7.500000 -0.937500q-9.765625 0.000000 -14.921875 6.593750q-5.140625 6.593750 -5.875000 19.921875q2.875000 -4.250000 7.218750 -6.515625q4.359375 -2.265625 9.578125 -2.265625q10.984375 0.000000 17.359375 6.671875q6.375000 6.656250 6.375000 18.125000q0.000000 11.234375 -6.640625 18.031250q-6.640625 6.781250 -17.671875 6.781250q-12.656250 0.000000 -19.343750 -9.687500q-6.687500 -9.703125 -6.687500 -28.109375q0.000000 -17.281250 8.203125 -27.562500q8.203125 -10.281250 22.015625 -10.281250q3.718750 0.000000 7.500000 0.734375q3.781250 0.734375 7.890625 2.187500"/>
</defs>
<g style="fill: #000000; opacity: 1.000000" transform="translate(64.164062,401.706250)scale(0.120000)">
<use xlink:href="#c_6a8d56c819c37117ab4cf023bec22a5a"/>
<use xlink:href="#c_cc8d6d580d1b10c8632f7a42cd53db8a" x="83.789062"/>
</g>
</g>
</g>
<g id="xtick2">
<g id="line2d6">
<g ><use style="fill: none; stroke: #000000; stroke-width: 0.500000; stroke-linejoin: round; stroke-linecap: butt;  opacity: 1.000000" xlink:href="#m30e32995789d870ad79a2e54c91cf9c6" x="146.400000" y="388.800000"/>
</g></g>
<g id="line2d7">
<g ><use style="fill: none; stroke: #000000; stroke-width: 0.500000; stroke-linejoin: round; stroke-linecap: butt;  opacity: 1.000000" xlink:href="#m9281cae24120827b11d5ea8a7ad3e96b" x="146.400000" y="43.200000"/>
</g></g>
<g id="text2">
<defs>
<path id="c_a0416418d96557a09b8c1332d34883ba" d="M37.796875 -64.312500l-24.906250 38.921875l24.906250 0.000000zM35.203125 -72.906250l12.406250 0.000000l0.000000 47.515625l10.406250 0.000000l0.000000 8.203125l-10.406250 0.000000l0.000000 17.187500l-9.812500 0.000000l0.000000 -17.187500l-32.906250 0.000000l0.000000 -9.515625z"/>
</defs>
<g style="fill: #000000; opacity: 1.000000" transform="translate(138.517188,401.550000)scale(0.120000)">
<use xlink:href="#c_6a8d56c819c37117ab4cf023bec22a5a"/>
<use xlink:href="#c_a0416418d96557a09b8c1332d34883ba" x="83.789062"/>
</g>
</g>
</g>
<g id="xtick3">
<g id="line2d8">
<g ><use style="fill: none; stroke: #000000; stroke-width: 0.500000; stroke-linejoin: round; stroke-linecap: butt;  opacity: 1.000000" xlink:href="#m30e32995789d870ad79a2e54c91cf9c6" x="220.800000" y="388.800000"/>
</g></g>
<g id="line2d9">
<g ><use style="fill: none; stroke: #000000; stroke-width: 0.500000; stroke-linejoin: round; stroke-linecap: butt;  opacity: 1.000000" xlink:href="#m9281cae24120827b11d5ea8a7ad3e96b" x="220.800000" y="43.200000"/>
</g></g>
<g id="text3">
<defs>
<path id="c_ed3f3ed3ebfbd18bcb9c012009a68ad1" d="M19.187500 -8.296875l34.421875 0.000000l0.000000 8.296875l-46.281250 0.000000l0.000000 -8.296875q5.609375 -5.812500 15.296875 -15.593750q9.703125 -9.796875 12.187500 -12.640625q4.734375 -5.312500 6.609375 -9.000000q1.890625 -3.687500 1.890625 -7.250000q0.000000 -5.812500 -4.078125 -9.468750q-4.078125 -3.671875 -10.625000 -3.671875q-4.640625 0.000000 -9.796875 1.609375q-5.140625 1.609375 -11.000000 4.890625l0.000000 -9.968750q5.953125 -2.390625 11.125000 -3.609375q5.187500 -1.218750 9.484375 -1.218750q11.328125 0.000000 18.062500 5.671875q6.734375 5.656250 6.734375 15.125000q0.000000 4.500000 -1.687500 8.531250q-1.671875 4.015625 -6.125000 9.484375q-1.218750 1.421875 -7.765625 8.187500q-6.531250 6.765625 -18.453125 18.921875"/>
</defs>
<g style="fill: #000000; opacity: 1.000000" transform="translate(213.182813,401.706250)scale(0.120000)">
<use xlink:href="#c_6a8d56c819c37117ab4cf023bec22a5a"/>
<use xlink:href="#c_ed3f3ed3ebfbd18bcb9c012009a68ad1" x="83.789062"/>
</g>
</g>
</g>
<g id="xtick4">
<g id="line2d10">
<g ><use style="fill: none; stroke: #000000; stroke-width: 0.500000; stroke-linejoin: round; stroke-linecap: butt;  opacity: 1.000000" xlink:href="#m30e32995789d870ad79a2e54c91cf9c6" x="295.200000" y="388.800000"/>
</g></g>
<g id="line2d11">
<g ><use style="fill: none; stroke: #000000; stroke-width: 0.500000; stroke-linejoin: round; stroke-linecap: butt;  opacity: 1.000000" xlink:href="#m9281cae24120827b11d5ea8a7ad3e96b" x="295.200000" y="43.200000"/>
</g></g>
<g id="text4">
<defs>
<path id="c_7a2040fe3b94fcd41d0a72c84e93b115" d="M31.781250 -66.406250q-7.609375 0.000000 -11.453125 7.500000q-3.828125 7.484375 -3.828125 22.531250q0.000000 14.984375 3.828125 22.484375q3.843750 7.500000 11.453125 7.500000q7.671875 0.000000 11.500000 -7.500000q3.843750 -7.500000 3.843750 -22.484375q0.000000 -15.046875 -3.843750 -22.531250q-3.828125 -7.500000 -11.500000 -7.500000M31.781250 -74.218750q12.265625 0.000000 18.734375 9.703125q6.468750 9.687500 6.468750 28.140625q0.000000 18.406250 -6.468750 28.109375q-6.468750 9.687500 -18.734375 9.687500q-12.250000 0.000000 -18.718750 -9.687500q-6.468750 -9.703125 -6.468750 -28.109375q0.000000 -18.453125 6.468750 -28.140625q6.468750 -9.703125 18.718750 -9.703125"/>
</defs>
<g style="fill: #000000; opacity: 1.000000" transform="translate(292.176562,401.706250)scale(0.120000)">
<use xlink:href="#c_7a2040fe3b94fcd41d0a72c84e93b115"/>
</g>
</g>
</g>
<g id="xtick5">
<g id="line2d12">
<g ><use style="fill: none; stroke: #000000; stroke-width: 0.500000; stroke-linejoin: round; stroke-linecap: butt;  opacity: 1.000000" xlink:href="#m30e32995789d870ad79a2e54c91cf9c6" x="369.600000" y="388.800000"/>
</g></g>
<g id="line2d13">
<g ><use style="fill: none; stroke: #000000; stroke-width: 0.500000; stroke-linejoin: round; stroke-linecap: butt;  opacity: 1.000000" xlink:href="#m9281cae24120827b11d5ea8a7ad3e96b" x="369.600000" y="43.200000"/>
</g></g>
<g id="text5">
<g style="fill: #000000; opacity: 1.000000" transform="translate(366.818750,401.706250)scale(0.120000)">
<use xlink:href="#c_ed3f3ed3ebfbd18bcb9c012009a68ad1"/>
</g>
</g>
</g>
<g id="xtick6">
<g id="line2d14">
<g ><use style="fill: none; stroke: #000000; stroke-width: 0.500000; stroke-linejoin: round; stroke-linecap: butt;  opacity: 1.000000" xlink:href="#m30e32995789d870ad79a2e54c91cf9c6" x="444.000000" y="388.800000"/>
</g></g>
<g id="line2d15">
<g ><use style="fill: none; stroke: #000000; stroke-width: 0.500000; stroke-linejoin: round; stroke-linecap: butt;  opacity: 1.000000" xlink:href="#m9281cae24120827b11d5ea8a7ad3e96b" x="444.000000" y="43.200000"/>
</g></g>
<g id="text6">
<g style="fill: #000000; opacity: 1.000000" transform="translate(440.812500,401.550000)scale(0.120000)">
<use xlink:href="#c_a0416418d96557a09b8c1332d34883ba"/>
</g>
</g>
</g>
<g id="xtick7">
<g id="line2d16">
<g ><use style="fill: none; stroke: #000000; stroke-width: 0.500000; stroke-linejoin: round; stroke-linecap: butt;  opacity: 1.000000" xlink:href="#m30e32995789d870ad79a2e54c91cf9c6" x="518.400000" y="388.800000"/>
</g></g>
<g id="line2d17">
<g ><use style="fill: none; stroke: #000000; stroke-width: 0.500000; stroke-linejoin: round; stroke-linecap: butt;  opacity: 1.000000" xlink:href="#m9281cae24120827b11d5ea8a7ad3e96b" x="518.400000" y="43.200000"/>
</g></g>
<g id="text7">
<g style="fill: #000000; opacity: 1.000000" transform="translate(515.384375,401.706250)scale(0.120000)">
<use xlink:href="#c_cc8d6d580d1b10c8632f7a42cd53db8a"/>
</g>
</g>
</g>
<g id="text8">
<defs>
<path id="c_277960698c3e9ebfcde4d2161536ce57" d="M7.812500 -2.875000q1.765625 1.359375 4.984375 1.359375q3.125000 0.000000 5.515625 -3.000000q2.390625 -3.000000 3.265625 -6.562500l4.546875 -17.734375q1.078125 -4.828125 1.078125 -6.593750q0.000000 -2.484375 -1.390625 -4.343750q-1.390625 -1.859375 -3.890625 -1.859375q-3.171875 0.000000 -5.953125 1.984375q-2.781250 1.984375 -4.687500 5.031250q-1.906250 3.046875 -2.687500 6.171875q-0.187500 0.640625 -0.781250 0.640625l-1.218750 0.000000q-0.781250 0.000000 -0.781250 -0.937500l0.000000 -0.281250q0.968750 -3.718750 3.312500 -7.250000q2.343750 -3.546875 5.734375 -5.734375q3.406250 -2.203125 7.265625 -2.203125q3.656250 0.000000 6.609375 1.953125q2.953125 1.953125 4.171875 5.312500q1.718750 -3.062500 4.375000 -5.156250q2.656250 -2.109375 5.828125 -2.109375q2.156250 0.000000 4.390625 0.765625q2.250000 0.750000 3.671875 2.312500q1.421875 1.562500 1.421875 3.906250q0.000000 2.531250 -1.640625 4.375000q-1.640625 1.828125 -4.171875 1.828125q-1.609375 0.000000 -2.687500 -1.031250q-1.078125 -1.031250 -1.078125 -2.593750q0.000000 -2.093750 1.437500 -3.671875q1.453125 -1.593750 3.453125 -1.890625q-1.812500 -1.421875 -4.984375 -1.421875q-3.218750 0.000000 -5.593750 2.984375q-2.359375 2.984375 -3.343750 6.640625l-4.390625 17.671875q-1.078125 4.015625 -1.078125 6.593750q0.000000 2.546875 1.437500 4.375000q1.437500 1.828125 3.843750 1.828125q4.687500 0.000000 8.359375 -4.125000q3.687500 -4.125000 4.859375 -9.062500q0.203125 -0.578125 0.781250 -0.578125l1.234375 0.000000q0.390625 0.000000 0.625000 0.265625q0.250000 0.265625 0.250000 0.609375q0.000000 0.093750 -0.093750 0.296875q-1.421875 5.953125 -5.968750 10.593750q-4.531250 4.640625 -10.250000 4.640625q-3.656250 0.000000 -6.609375 -1.968750q-2.953125 -1.984375 -4.187500 -5.359375q-1.562500 2.937500 -4.328125 5.140625q-2.750000 2.187500 -5.875000 2.187500q-2.140625 0.000000 -4.421875 -0.765625q-2.265625 -0.750000 -3.687500 -2.312500q-1.406250 -1.562500 -1.406250 -3.953125q0.000000 -2.343750 1.625000 -4.265625q1.640625 -1.937500 4.093750 -1.937500q1.656250 0.000000 2.781250 1.000000q1.125000 1.000000 1.125000 2.609375q0.000000 2.109375 -1.406250 3.671875q-1.390625 1.562500 -3.484375 1.953125"/>
</defs>
<g id="mathtext1">
<g style="fill: #000000" transform="translate(291.700000,413.878125)">
<use xlink:href="#c_277960698c3e9ebfcde4d2161536ce57" transform="translate(0.000000,-1.703125)scale(0.120000)"/>
</g>
</g>
</g>
</g>
<g id="matplotlib.axis2">
<g id="ytick1">
<g id="line2d18">
<defs><path id="m3400efa6b1638b3fea9e19e898273957" d="M0.000000 0.000000L4.000000 0.000000"/></defs>
<g ><use style="fill: none; stroke: #000000; stroke-width: 0.500000; stroke-linejoin: round; stroke-linecap: butt;  opacity: 1.000000" xlink:href="#m3400efa6b1638b3fea9e19e898273957" x="72.000000" y="327.600000"/>
</g></g>
<g id="line2d19">
<defs><path id="m20b58b2501143cb5e0a5e8f1ef6f1643" d="M0.000000 0.000000L-4.000000 0.000000"/></defs>
<g ><use style="fill: none; stroke: #000000; stroke-width: 0.500000; stroke-linejoin: round; stroke-linecap: butt;  opacity: 1.000000" xlink:href="#m20b58b2501143cb5e0a5e8f1ef6f1643" x="518.400000" y="327.600000"/>
</g></g>
<g id="text9">
<g style="fill: #000000; opacity: 1.000000" transform="translate(52.765625,332.053125)scale(0.120000)">
<use xlink:href="#c_6a8d56c819c37117ab4cf023bec22a5a"/>
<use xlink:href="#c_ed3f3ed3ebfbd18bcb9c012009a68ad1" x="83.789062"/>
</g>
</g>
</g>
<g id="ytick2">
<g id="line2d20">
<g ><use style="fill: none; stroke: #000000; stroke-width: 0.500000; stroke-linejoin: round; stroke-linecap: butt;  opacity: 1.000000" xlink:href="#m3400efa6b1638b3fea9e19e898273957" x="72.000000" y="253.200000"/>
</g></g>
<g id="line2d21">
<g ><use style="fill: none; stroke: #000000; stroke-width: 0.500000; stroke-linejoin: round; stroke-linecap: butt;  opacity: 1.000000" xlink:href="#m20b58b2501143cb5e0a5e8f1ef6f1643" x="518.400000" y="253.200000"/>
</g></g>
<g id="text10">
<g style="fill: #000000; opacity: 1.000000" transform="translate(61.953125,257.567188)scale(0.120000)">
<use xlink:href="#c_7a2040fe3b94fcd41d0a72c84e93b115"/>
</g>
</g>
</g>
<g id="ytick3">
<g id="line2d22">
<g ><use style="fill: none; stroke: #000000; stroke-width: 0.500000; stroke-linejoin: round; stroke-linecap: butt;  opacity: 1.000000" xlink:href="#m3400efa6b1638b3fea9e19e898273957" x="72.000000" y="178.800000"/>
</g></g>
<g id="line2d23">
<g ><use style="fill: none; stroke: #000000; stroke-width: 0.500000; stroke-linejoin: round; stroke-linecap: butt;  opacity: 1.000000" xlink:href="#m20b58b2501143cb5e0a5e8f1ef6f1643" x="518.400000" y="178.800000"/>
</g></g>
<g id="text11">
<g style="fill: #000000; opacity: 1.000000" transform="translate(62.437500,183.253125)scale(0.120000)">
<use xlink:href="#c_ed3f3ed3ebfbd18bcb9c012009a68ad1"/>
</g>
</g>
</g>
<g id="ytick4">
<g id="line2d24">
<g ><use style="fill: none; stroke: #000000; stroke-width: 0.500000; stroke-linejoin: round; stroke-linecap: butt;  opacity: 1.000000" xlink:href="#m3400efa6b1638b3fea9e19e898273957" x="72.000000" y="104.400000"/>
</g></g>
<g id="line2d25">
<g ><use style="fill: none; stroke: #000000; stroke-width: 0.500000; stroke-linejoin: round; stroke-linecap: butt;  opacity: 1.000000" xlink:href="#m20b58b2501143cb5e0a5e8f1ef6f1643" x="518.400000" y="104.400000"/>
</g></g>
<g id="text12">
<g style="fill: #000000; opacity: 1.000000" transform="translate(61.625000,108.775000)scale(0.120000)">
<use xlink:href="#c_a0416418d96557a09b8c1332d34883ba"/>
</g>
</g>
</g>
<g id="text13">
<defs>
<path id="c_322d44ed1377de836f22e8890a965a87" d="M9.718750 16.500000q1.859375 1.421875 4.484375 1.421875q3.578125 0.000000 5.812500 -7.906250q0.937500 -3.812500 5.078125 -25.109375l4.593750 -24.500000l-8.593750 0.000000q-0.968750 0.000000 -0.968750 -1.328125q0.390625 -2.187500 1.265625 -2.187500l8.937500 0.000000l1.171875 -6.500000q0.578125 -3.031250 1.062500 -5.203125q0.500000 -2.171875 1.062500 -4.015625q0.562500 -1.859375 1.671875 -4.156250q1.718750 -3.281250 4.625000 -5.406250q2.906250 -2.125000 6.265625 -2.125000q2.203125 0.000000 4.281250 0.812500q2.078125 0.812500 3.390625 2.421875q1.312500 1.609375 1.312500 3.796875q0.000000 2.546875 -1.687500 4.437500q-1.671875 1.875000 -4.062500 1.875000q-1.625000 0.000000 -2.765625 -1.000000q-1.140625 -1.015625 -1.140625 -2.625000q0.000000 -2.187500 1.484375 -3.828125q1.484375 -1.640625 3.687500 -1.875000q-1.859375 -1.421875 -4.593750 -1.421875q-1.515625 0.000000 -2.859375 1.421875q-1.343750 1.406250 -1.734375 3.015625q-0.625000 2.546875 -2.781250 13.781250l-1.218750 6.593750l10.296875 0.000000q0.984375 0.000000 0.984375 1.312500q-0.046875 0.250000 -0.203125 0.859375q-0.140625 0.609375 -0.406250 0.984375q-0.265625 0.359375 -0.656250 0.359375l-10.703125 0.000000l-4.640625 24.406250q-0.875000 5.328125 -2.031250 10.828125q-1.140625 5.484375 -3.218750 11.265625q-2.062500 5.796875 -5.296875 9.703125q-3.218750 3.906250 -7.609375 3.906250q-3.375000 0.000000 -6.031250 -1.937500q-2.656250 -1.921875 -2.656250 -5.093750q0.000000 -2.546875 1.625000 -4.437500q1.640625 -1.875000 4.125000 -1.875000q1.671875 0.000000 2.781250 1.000000q1.125000 1.015625 1.125000 2.625000q0.000000 2.140625 -1.593750 3.921875q-1.578125 1.781250 -3.671875 1.781250"/>
<path id="c_06a7a4502300c60b4feec85758ecf628" d="M31.000000 24.812500q-5.562500 -4.406250 -9.593750 -10.093750q-4.015625 -5.687500 -6.593750 -12.140625q-2.562500 -6.437500 -3.828125 -13.468750q-1.265625 -7.031250 -1.265625 -14.109375q0.000000 -7.171875 1.265625 -14.203125q1.265625 -7.031250 3.875000 -13.531250q2.625000 -6.500000 6.671875 -12.156250q4.062500 -5.671875 9.468750 -9.921875q0.000000 -0.187500 0.500000 -0.187500l0.921875 0.000000q0.296875 0.000000 0.531250 0.265625q0.250000 0.265625 0.250000 0.609375q0.000000 0.437500 -0.187500 0.640625q-4.890625 4.781250 -8.140625 10.250000q-3.250000 5.468750 -5.234375 11.656250q-1.968750 6.171875 -2.843750 12.796875q-0.875000 6.609375 -0.875000 13.781250q0.000000 31.781250 16.984375 48.296875q0.296875 0.281250 0.296875 0.828125q0.000000 0.234375 -0.265625 0.546875q-0.265625 0.328125 -0.515625 0.328125l-0.921875 0.000000q-0.500000 0.000000 -0.500000 -0.187500"/>
<path id="c_b865a8a4692360a5eaaff4ecf56eccf7" d="M6.500000 25.000000q-0.890625 0.000000 -0.890625 -0.875000q0.000000 -0.437500 0.203125 -0.640625q17.093750 -16.703125 17.093750 -48.484375q0.000000 -31.781250 -16.906250 -48.296875q-0.390625 -0.234375 -0.390625 -0.828125q0.000000 -0.343750 0.265625 -0.609375q0.281250 -0.265625 0.625000 -0.265625l0.921875 0.000000q0.296875 0.000000 0.484375 0.187500q7.187500 5.671875 11.968750 13.781250q4.781250 8.093750 7.000000 17.281250q2.234375 9.171875 2.234375 18.750000q0.000000 7.078125 -1.203125 13.937500q-1.203125 6.859375 -3.812500 13.515625q-2.609375 6.671875 -6.609375 12.312500q-4.000000 5.640625 -9.578125 10.046875q-0.187500 0.187500 -0.484375 0.187500z"/>
</defs>
<g id="mathtext2">
<g style="fill: #000000" transform="translate(47.765625,227.500000)rotate(-90.0)">
<use xlink:href="#c_322d44ed1377de836f22e8890a965a87" transform="translate(0.000000,-3.000000)scale(0.120000)"/>
<use xlink:href="#c_06a7a4502300c60b4feec85758ecf628" transform="translate(5.865234,-3.000000)scale(0.120000)"/>
<use xlink:href="#c_277960698c3e9ebfcde4d2161536ce57" transform="translate(10.523438,-3.000000)scale(0.120000)"/>
<use xlink:href="#c_b865a8a4692360a5eaaff4ecf56eccf7" transform="translate(17.373047,-3.000000)scale(0.120000)"/>
</g>
</g>
</g>
</g>
<g id="patch3">
<path style="fill: none; stroke: #000000; stroke-width: 1.000000; stroke-linejoin: round; stroke-linecap: square;  opacity: 1.000000"  d="M72.000000 43.200000L518.400000 43.200000"/>
</g>
<g id="patch4">
<path style="fill: none; stroke: #000000; stroke-width: 1.000000; stroke-linejoin: round; stroke-linecap: square;  opacity: 1.000000"  d="M518.400000 388.800000L518.400000 43.200000"/>
</g>
<g id="patch5">
<path style="fill: none; stroke: #000000; stroke-width: 1.000000; stroke-linejoin: round; stroke-linecap: square;  opacity: 1.000000"  d="M72.000000 388.800000L518.400000 388.800000"/>
</g>
<g id="patch6">
<path style="fill: none; stroke: #000000; stroke-width: 1.000000; stroke-linejoin: round; stroke-linecap: square;  opacity: 1.000000"  d="M72.000000 388.800000L72.000000 43.200000"/>
</g>
<g id="text14">
<defs>
<path id="c_7bbc93c01755cdeb977d08bdfb9ce616" d="M7.515625 -13.281250q-0.828125 0.000000 -1.375000 -0.625000q-0.531250 -0.640625 -0.531250 -1.375000q0.000000 -0.828125 0.531250 -1.406250q0.546875 -0.593750 1.375000 -0.593750l62.796875 0.000000q0.734375 0.000000 1.265625 0.593750q0.546875 0.578125 0.546875 1.406250q0.000000 0.734375 -0.546875 1.375000q-0.531250 0.625000 -1.265625 0.625000zM7.515625 -32.718750q-0.828125 0.000000 -1.375000 -0.578125q-0.531250 -0.593750 -0.531250 -1.421875q0.000000 -0.734375 0.531250 -1.359375q0.546875 -0.640625 1.375000 -0.640625l62.796875 0.000000q0.734375 0.000000 1.265625 0.640625q0.546875 0.625000 0.546875 1.359375q0.000000 0.828125 -0.546875 1.421875q-0.531250 0.578125 -1.265625 0.578125z"/>
<path id="c_1a459ac34855d27ec37ccb0e66298d36" d="M9.281250 -0.000000l0.000000 -3.515625q12.500000 0.000000 12.500000 -3.171875l0.000000 -52.500000q-5.171875 2.500000 -13.093750 2.500000l0.000000 -3.515625q12.265625 0.000000 18.515625 -6.406250l1.406250 0.000000q0.343750 0.000000 0.656250 0.281250q0.328125 0.265625 0.328125 0.609375l0.000000 59.031250q0.000000 3.171875 12.500000 3.171875l0.000000 3.515625z"/>
<path id="c_61c20b1e4c944de7566e5fda525fb070" d="M10.203125 -23.000000q-0.828125 0.000000 -1.375000 -0.625000q-0.531250 -0.640625 -0.531250 -1.375000q0.000000 -0.734375 0.531250 -1.359375q0.546875 -0.640625 1.375000 -0.640625l57.375000 0.000000q0.781250 0.000000 1.296875 0.640625q0.515625 0.625000 0.515625 1.359375q0.000000 0.734375 -0.515625 1.375000q-0.515625 0.625000 -1.296875 0.625000z"/>
<path id="c_dc2f30de664f961b040176e9cbe7c56c" d="M24.906250 1.125000q-6.062500 0.000000 -11.000000 -3.140625q-4.921875 -3.156250 -7.750000 -8.406250q-2.828125 -5.250000 -2.828125 -11.156250q0.000000 -5.906250 2.796875 -11.328125q2.812500 -5.421875 7.765625 -8.671875q4.953125 -3.250000 11.015625 -3.250000q5.859375 0.000000 10.656250 2.296875q4.812500 2.296875 4.812500 7.515625q0.000000 1.953125 -1.390625 3.406250q-1.390625 1.437500 -3.390625 1.437500q-2.000000 0.000000 -3.390625 -1.437500q-1.390625 -1.453125 -1.390625 -3.406250q0.000000 -1.750000 1.125000 -3.046875q1.125000 -1.296875 2.781250 -1.640625q-3.468750 -2.187500 -9.718750 -2.187500q-4.781250 0.000000 -7.718750 3.171875q-2.921875 3.171875 -4.093750 7.859375q-1.171875 4.687500 -1.171875 9.281250q0.000000 4.828125 1.437500 9.343750q1.437500 4.515625 4.640625 7.468750q3.203125 2.953125 8.031250 2.953125q4.734375 0.000000 8.046875 -2.906250q3.328125 -2.906250 4.546875 -7.593750q0.000000 -0.578125 0.781250 -0.578125l1.218750 0.000000q0.296875 0.000000 0.531250 0.265625q0.250000 0.265625 0.250000 0.609375l0.000000 0.296875q-1.515625 5.906250 -6.015625 9.375000q-4.484375 3.468750 -10.578125 3.468750"/>
<path id="c_3f72f0e1b2c8acfc5e912f2e891b93aa" d="M25.000000 1.125000q-6.000000 0.000000 -11.140625 -3.046875q-5.125000 -3.062500 -8.109375 -8.187500q-2.968750 -5.125000 -2.968750 -11.187500q0.000000 -4.578125 1.640625 -8.828125q1.640625 -4.250000 4.687500 -7.593750q3.046875 -3.343750 7.093750 -5.218750q4.062500 -1.890625 8.796875 -1.890625q6.156250 0.000000 11.203125 3.250000q5.062500 3.250000 7.984375 8.703125q2.937500 5.437500 2.937500 11.578125q0.000000 6.015625 -2.984375 11.171875q-2.984375 5.140625 -8.093750 8.203125q-5.093750 3.046875 -11.046875 3.046875M25.000000 -1.812500q8.015625 0.000000 10.687500 -5.796875q2.687500 -5.812500 2.687500 -14.796875q0.000000 -5.031250 -0.531250 -8.328125q-0.531250 -3.296875 -2.343750 -5.984375q-1.125000 -1.656250 -2.859375 -2.906250q-1.734375 -1.250000 -3.671875 -1.906250q-1.921875 -0.656250 -3.968750 -0.656250q-3.125000 0.000000 -5.937500 1.421875q-2.796875 1.406250 -4.656250 4.046875q-1.859375 2.828125 -2.375000 6.234375q-0.500000 3.390625 -0.500000 8.078125q0.000000 5.609375 0.968750 10.078125q0.984375 4.468750 3.937500 7.500000q2.953125 3.015625 8.562500 3.015625"/>
<path id="c_9dee543e61e1891a201a1f71acd5eb15" d="M3.328125 0.296875l0.000000 -16.312500q0.000000 -0.781250 0.875000 -0.781250l1.218750 0.000000q0.578125 0.000000 0.781250 0.781250q2.781250 14.500000 13.468750 14.500000q4.750000 0.000000 7.937500 -2.140625q3.203125 -2.156250 3.203125 -6.640625q0.000000 -3.234375 -2.500000 -5.500000q-2.484375 -2.265625 -5.906250 -3.093750l-6.687500 -1.328125q-3.359375 -0.734375 -6.125000 -2.234375q-2.750000 -1.515625 -4.515625 -4.031250q-1.750000 -2.515625 -1.750000 -5.843750q0.000000 -4.390625 2.312500 -7.187500q2.312500 -2.812500 6.015625 -4.062500q3.718750 -1.250000 8.015625 -1.250000q5.140625 0.000000 8.937500 2.734375l2.890625 -2.484375q0.000000 -0.250000 0.484375 -0.250000l0.734375 0.000000q0.296875 0.000000 0.531250 0.281250q0.250000 0.265625 0.250000 0.546875l0.000000 13.093750q0.000000 0.921875 -0.781250 0.921875l-1.218750 0.000000q-0.890625 0.000000 -0.890625 -0.921875q0.000000 -5.234375 -2.906250 -8.406250q-2.890625 -3.171875 -8.125000 -3.171875q-4.484375 0.000000 -7.781250 1.671875q-3.296875 1.656250 -3.296875 5.703125q0.000000 2.781250 2.359375 4.562500q2.375000 1.781250 5.546875 2.562500l6.781250 1.281250q3.421875 0.781250 6.375000 2.640625q2.953125 1.843750 4.687500 4.687500q1.734375 2.828125 1.734375 6.390625q0.000000 3.609375 -1.250000 6.281250q-1.234375 2.656250 -3.468750 4.421875q-2.218750 1.750000 -5.250000 2.578125q-3.015625 0.828125 -6.343750 0.828125q-6.250000 0.000000 -10.687500 -4.203125l-3.656250 3.953125q0.000000 0.250000 -0.546875 0.250000l-0.578125 0.000000q-0.875000 0.000000 -0.875000 -0.828125"/>
</defs>
<g id="mathtext3">
<g style="fill: #000000" transform="translate(245.700000,38.200000)">
<use xlink:href="#c_322d44ed1377de836f22e8890a965a87" transform="translate(0.000000,-4.203125)scale(0.144000)"/>
<use xlink:href="#c_06a7a4502300c60b4feec85758ecf628" transform="translate(7.033691,-4.203125)scale(0.144000)"/>
<use xlink:href="#c_277960698c3e9ebfcde4d2161536ce57" transform="translate(12.619888,-4.203125)scale(0.144000)"/>
<use xlink:href="#c_b865a8a4692360a5eaaff4ecf56eccf7" transform="translate(20.834061,-4.203125)scale(0.144000)"/>
<use xlink:href="#c_7bbc93c01755cdeb977d08bdfb9ce616" transform="translate(28.947049,-4.203125)scale(0.144000)"/>
<use xlink:href="#c_1a459ac34855d27ec37ccb0e66298d36" transform="translate(41.036340,-4.203125)scale(0.144000)"/>
<use xlink:href="#c_61c20b1e4c944de7566e5fda525fb070" transform="translate(48.231653,-4.203125)scale(0.144000)"/>
<use xlink:href="#c_dc2f30de664f961b040176e9cbe7c56c" transform="translate(59.411081,-4.203125)scale(0.144000)"/>
<use xlink:href="#c_3f72f0e1b2c8acfc5e912f2e891b93aa" transform="translate(65.798318,-4.203125)scale(0.144000)"/>
<use xlink:href="#c_9dee543e61e1891a201a1f71acd5eb15" transform="translate(72.993631,-4.203125)scale(0.144000)"/>
<use xlink:href="#c_06a7a4502300c60b4feec85758ecf628" transform="translate(78.664148,-4.203125)scale(0.144000)"/>
<use xlink:href="#c_277960698c3e9ebfcde4d2161536ce57" transform="translate(84.250345,-4.203125)scale(0.144000)"/>
<use xlink:href="#c_b865a8a4692360a5eaaff4ecf56eccf7" transform="translate(92.464517,-4.203125)scale(0.144000)"/>
</g>
</g>
</g>
</g>
</g>
</svg>
